<svg width="17" height="16" viewBox="0 0 17 16" fill="none" xmlns="http://www.w3.org/2000/svg">
<path d="M16.5 9.81132V16H13.0561V10.1887C13.0561 8.75472 12.5538 7.77359 11.3341 7.77359C10.4013 7.77359 9.82735 8.45283 9.61211 9.05661C9.54036 9.28302 9.46861 9.5849 9.46861 9.96226V16H6.02466C6.02466 16 6.09641 6.18868 6.02466 5.20755H9.46861V6.71698C9.89911 5.96227 10.7601 4.90566 12.5538 4.90566C14.778 4.90566 16.5 6.49057 16.5 9.81132ZM2.43722 0C1.28924 0 0.5 0.830189 0.5 1.88679C0.5 2.9434 1.21749 3.77359 2.36547 3.77359C3.5852 3.77359 4.30269 2.9434 4.30269 1.88679C4.37444 0.754717 3.65695 0 2.43722 0ZM0.715246 16H4.15919V5.20755H0.715246V16Z" fill="white"/>
</svg>
