<svg width="16" height="16" viewBox="0 0 16 16" fill="none" xmlns="http://www.w3.org/2000/svg">
<path d="M12.9168 2.91682C12.6153 2.61525 12.1258 2.61525 11.8242 2.91682L8 6.74101L4.17581 2.91682C3.87424 2.61525 3.38475 2.61525 3.08318 2.91682C2.78162 3.21838 2.78162 3.70788 3.08318 4.00944L6.90737 7.83363L3.08318 11.6578C2.78162 11.9594 2.78162 12.4489 3.08318 12.7505C3.38475 13.052 3.87424 13.052 4.17581 12.7505L8 8.92626L11.8242 12.7505C12.1258 13.052 12.6153 13.052 12.9168 12.7505C13.2184 12.4489 13.2184 11.9594 12.9168 11.6578L9.09263 7.83363L12.9168 4.00944C13.2184 3.70788 13.2184 3.21838 12.9168 2.91682Z" fill="white"/>
</svg>
