<svg width="90" height="28" viewBox="0 0 90 28" fill="none" xmlns="http://www.w3.org/2000/svg">
<path d="M41.3954 4.39601C41.4635 6.25535 41.4385 8.11711 41.3205 9.97377C41.3316 10.0285 41.34 10.0837 41.3455 10.1393C41.3979 10.6849 42.3334 11.2279 42.3509 11.7736C42.4632 11.9653 41.6098 12.1884 41.5949 12.4123C41.5651 12.9148 41.5102 13.4154 41.4303 13.9121C41.4303 14.0595 41.4303 14.2043 41.4153 14.3517C41.4407 15.2774 41.3705 16.2032 41.2058 17.1134C41.2058 17.2634 41.2058 17.4108 41.2058 17.5608C41.2058 18.6598 41.4552 19.8881 40.7719 20.8216C40.4938 21.1736 40.1295 21.4415 39.7171 21.5973C39.1161 21.9568 38.2658 22.1145 37.1436 22.1145C35.623 22.1196 34.108 21.9241 32.635 21.5327V27.5035C34.1811 27.8255 35.7537 27.9918 37.3306 28C44.7843 28 47.2256 24.853 47.2256 18.7942V4.39601H41.3954Z" fill="white"/>
<path d="M56.6842 21.0983C50.1582 21.0983 46.7643 17.659 46.7643 12.5441C46.7643 7.42926 50.2131 3.99003 55.7566 3.99003C60.3973 3.99003 64.1129 7.56631 64.1129 12.5985V14.4422H53.6394C54.0908 15.8722 55.2828 16.2523 56.9286 16.2523C58.6268 16.2523 59.6866 15.7351 60.8287 14.9594L64.1179 18.6727C62.4995 20.0743 59.7689 21.0931 56.6917 21.0931L56.6842 21.0983ZM53.6344 10.8607H57.5869C57.2952 9.67898 56.6593 9.05061 55.6244 9.05061C54.5895 9.05061 53.9262 9.65571 53.6294 10.8607" fill="white"/>
<path d="M70.4095 20.4285H64.0431V4.6546H70.0903V7.07499C70.6447 6.23402 71.3889 5.54631 72.2582 5.07173C73.1274 4.59715 74.0954 4.35009 75.0777 4.35205C77.943 4.35205 80.4616 6.55264 80.4616 10.1289V20.4285H74.0977V12.1847C74.0977 10.809 73.4618 10.1755 72.3197 10.1755C71.2574 10.1755 70.4095 10.9745 70.4095 11.908V20.4285Z" fill="white"/>
<path d="M88.5412 10.1781V20.4363H82.1748V10.1781H80.716V4.64943H82.1748V0.824899L88.5412 0V4.64943H90V10.1781H88.5412Z" fill="white"/>
<path d="M13.2166 20.5889C12.4261 20.9845 11.0396 21.106 9.75784 21.106C4.19191 21.0983 0 18.0754 0 12.5416C0 7.00776 4.1919 3.98744 9.74786 3.98744C11.0271 3.98744 12.4161 4.10122 13.2066 4.50462V10.5659H13.042C12.6331 10.0307 11.5458 9.66347 10.1843 9.66347C8.33393 9.66347 6.83522 10.8788 6.83522 12.5441C6.83522 14.2663 8.33144 15.4248 10.1843 15.4248C11.5458 15.4248 12.6356 15.0576 13.042 14.5224H13.2166V20.5889Z" fill="white"/>
<path fill-rule="evenodd" clip-rule="evenodd" d="M21.8597 21.0957C27.1115 21.0957 31.1163 17.4548 31.1163 12.5416C31.1163 7.6077 27.1115 3.98745 21.8597 3.98745C16.608 3.98745 12.6031 7.6077 12.6031 12.5416C12.6031 17.4755 16.608 21.0957 21.8597 21.0957ZM20.2314 9.61692H23.4881L25.1165 12.5441L23.4881 15.4688H20.2314L18.603 12.5441L20.2314 9.61692Z" fill="white"/>
<path fill-rule="evenodd" clip-rule="evenodd" d="M37.964 20.5449C42.9464 20.5449 46.7493 17.0979 46.7493 12.4252C46.7493 7.75766 42.9489 4.3055 37.964 4.3055C32.9791 4.3055 29.1762 7.75249 29.1762 12.4252C29.1762 17.0979 32.9816 20.5449 37.964 20.5449ZM40.9677 9.54987H34.8387V15.5981H40.9677V9.54987Z" fill="white"/>
</svg>
